<svg width="52" height="52" viewBox="0 0 52 52" fill="none" xmlns="http://www.w3.org/2000/svg">
<path d="M44.0208 9.4478C40.649 7.90033 37.091 6.7959 33.4356 6.16205C33.4025 6.15647 33.3684 6.16129 33.3382 6.17584C33.3079 6.19039 33.2829 6.21395 33.2666 6.2433C32.8083 7.0558 32.3013 8.11855 31.9471 8.95055C28.0068 8.35258 23.9988 8.35258 20.0586 8.95055C19.6634 8.0237 19.2164 7.11986 18.7196 6.2433C18.7029 6.21427 18.6778 6.19098 18.6477 6.17648C18.6175 6.16197 18.5837 6.15694 18.5506 6.16205C14.8945 6.79333 11.3362 7.89786 7.96532 9.4478C7.93648 9.4588 7.91236 9.47948 7.89707 9.5063C1.15657 19.578 -0.692678 29.4028 0.214072 39.104C0.217322 39.1495 0.246572 39.195 0.282322 39.2243C4.20746 42.1317 8.59777 44.3516 13.2661 45.7893C13.299 45.7997 13.3345 45.7993 13.3672 45.7882C13.3999 45.7771 13.4282 45.7559 13.4481 45.7276C14.4491 44.3625 15.3396 42.9228 16.1066 41.4083C16.1172 41.3876 16.1232 41.3649 16.1243 41.3418C16.1254 41.3186 16.1215 41.2954 16.1128 41.2738C16.1042 41.2523 16.0911 41.2328 16.0743 41.2168C16.0575 41.2007 16.0375 41.1885 16.0156 41.1808C14.6154 40.6426 13.2592 39.9961 11.9596 39.2471C11.9358 39.2333 11.9159 39.2139 11.9015 39.1906C11.8871 39.1672 11.8787 39.1407 11.8771 39.1133C11.8755 39.0859 11.8807 39.0586 11.8922 39.0337C11.9038 39.0088 11.9214 38.9872 11.9433 38.9708C12.2163 38.766 12.4893 38.5515 12.7493 38.337C12.7723 38.3186 12.7998 38.3067 12.829 38.3027C12.8582 38.2987 12.888 38.3027 12.9151 38.3143C21.4268 42.2013 30.6406 42.2013 39.0483 38.3143C39.0763 38.3018 39.1073 38.2973 39.1377 38.3013C39.1681 38.3053 39.1968 38.3177 39.2206 38.337C39.4806 38.5515 39.7536 38.766 40.0266 38.9708C40.0487 38.987 40.0665 39.0084 40.0783 39.0331C40.0901 39.0578 40.0956 39.0851 40.0943 39.1124C40.0931 39.1398 40.085 39.1664 40.0709 39.1899C40.0568 39.2134 40.0371 39.233 40.0136 39.2471C38.7168 40.0029 37.359 40.6486 35.9543 41.1776C35.9326 41.1859 35.9128 41.1988 35.8964 41.2153C35.88 41.2318 35.8672 41.2516 35.8589 41.2733C35.8506 41.2951 35.847 41.3184 35.8484 41.3416C35.8497 41.3649 35.8559 41.3876 35.8666 41.4083C36.6466 42.9196 37.5403 44.3625 38.5218 45.7276C38.5416 45.7559 38.57 45.7771 38.6027 45.7882C38.6354 45.7993 38.6709 45.7997 38.7038 45.7893C43.38 44.3561 47.7774 42.136 51.7071 39.2243C51.7266 39.2105 51.7428 39.1926 51.7546 39.1718C51.7664 39.151 51.7735 39.1279 51.7753 39.104C52.8608 27.8883 49.9586 18.1448 44.0858 9.50955C44.0799 9.49529 44.0711 9.48242 44.0599 9.47178C44.0487 9.46115 44.0354 9.45298 44.0208 9.4478ZM17.3773 33.1955C14.8131 33.1955 12.7038 30.8426 12.7038 27.9565C12.7038 25.0673 14.7741 22.7143 17.3773 22.7143C20.0001 22.7143 22.0898 25.0868 22.0508 27.9565C22.0508 30.8426 19.9806 33.1955 17.3773 33.1955ZM34.6543 33.1955C32.0933 33.1955 29.9808 30.8426 29.9808 27.9565C29.9808 25.0673 32.0511 22.7143 34.6543 22.7143C37.2771 22.7143 39.3701 25.0868 39.3278 27.9565C39.3278 30.8426 37.2771 33.1955 34.6543 33.1955Z" fill="url(#paint0_linear_801_1260)" id="id_101"></path>
<defs>
<linearGradient id="paint0_linear_801_1260" x1="25.9993" y1="6.15979" x2="25.9993" y2="45.7968" gradientUnits="userSpaceOnUse">
<stop stop-color="#ff0000" id="id_102"></stop>
<stop offset="1" stop-color="#0900ff" id="id_103"></stop>
</linearGradient>
</defs>
</svg>